<mxfile host="app.diagrams.net" modified="2023-05-30T09:04:27.319Z" agent="Mozilla/5.0 (Windows NT 10.0; Win64; x64) AppleWebKit/537.36 (KHTML, like Gecko) Chrome/113.0.0.0 Safari/537.36" etag="AZrTnNS8WBajzdButrgA" version="21.3.5" type="device">
  <diagram name="페이지-1" id="CtD_q_vKvCoaLun9ETFo">
    <mxGraphModel dx="1434" dy="764" grid="1" gridSize="10" guides="1" tooltips="1" connect="1" arrows="1" fold="1" page="1" pageScale="1" pageWidth="827" pageHeight="1169" math="0" shadow="0">
      <root>
        <mxCell id="0" />
        <mxCell id="1" parent="0" />
        <mxCell id="POGAOx-3_6B34403kSa5-1" value="NCS" style="ellipse;whiteSpace=wrap;html=1;" vertex="1" parent="1">
          <mxGeometry x="100" y="20" width="120" height="80" as="geometry" />
        </mxCell>
        <mxCell id="POGAOx-3_6B34403kSa5-2" value="&lt;font style=&quot;font-size: 18px;&quot;&gt;태도&lt;/font&gt;" style="rounded=1;whiteSpace=wrap;html=1;" vertex="1" parent="1">
          <mxGeometry x="360" y="170" width="120" height="60" as="geometry" />
        </mxCell>
        <mxCell id="POGAOx-3_6B34403kSa5-3" value="&lt;font style=&quot;font-size: 18px;&quot;&gt;습관&lt;/font&gt;" style="rounded=1;whiteSpace=wrap;html=1;" vertex="1" parent="1">
          <mxGeometry x="190" y="170" width="120" height="60" as="geometry" />
        </mxCell>
        <mxCell id="POGAOx-3_6B34403kSa5-4" value="&lt;font style=&quot;font-size: 18px;&quot;&gt;지식&lt;/font&gt;" style="rounded=1;whiteSpace=wrap;html=1;" vertex="1" parent="1">
          <mxGeometry x="20" y="170" width="120" height="60" as="geometry" />
        </mxCell>
        <mxCell id="POGAOx-3_6B34403kSa5-5" value="" style="endArrow=classic;html=1;rounded=0;entryX=0.5;entryY=0;entryDx=0;entryDy=0;exitX=0.5;exitY=1;exitDx=0;exitDy=0;" edge="1" parent="1" source="POGAOx-3_6B34403kSa5-1" target="POGAOx-3_6B34403kSa5-4">
          <mxGeometry width="50" height="50" relative="1" as="geometry">
            <mxPoint x="129" y="99" as="sourcePoint" />
            <mxPoint x="130" y="90" as="targetPoint" />
          </mxGeometry>
        </mxCell>
        <mxCell id="POGAOx-3_6B34403kSa5-6" value="" style="endArrow=classic;html=1;rounded=0;entryX=0.5;entryY=0;entryDx=0;entryDy=0;exitX=0.5;exitY=1;exitDx=0;exitDy=0;" edge="1" parent="1" source="POGAOx-3_6B34403kSa5-1" target="POGAOx-3_6B34403kSa5-3">
          <mxGeometry width="50" height="50" relative="1" as="geometry">
            <mxPoint x="180" y="130" as="sourcePoint" />
            <mxPoint x="230" y="80" as="targetPoint" />
          </mxGeometry>
        </mxCell>
        <mxCell id="POGAOx-3_6B34403kSa5-7" value="" style="endArrow=classic;html=1;rounded=0;entryX=0.5;entryY=0;entryDx=0;entryDy=0;exitX=0.5;exitY=1;exitDx=0;exitDy=0;" edge="1" parent="1" source="POGAOx-3_6B34403kSa5-1" target="POGAOx-3_6B34403kSa5-2">
          <mxGeometry width="50" height="50" relative="1" as="geometry">
            <mxPoint x="220" y="70" as="sourcePoint" />
            <mxPoint x="400" y="160" as="targetPoint" />
          </mxGeometry>
        </mxCell>
        <mxCell id="POGAOx-3_6B34403kSa5-8" value="질문" style="rounded=1;whiteSpace=wrap;html=1;" vertex="1" parent="1">
          <mxGeometry x="400" y="270" width="120" height="60" as="geometry" />
        </mxCell>
        <mxCell id="POGAOx-3_6B34403kSa5-11" value="&lt;font style=&quot;font-size: 18px;&quot;&gt;출결&lt;/font&gt;" style="rounded=1;whiteSpace=wrap;html=1;" vertex="1" parent="1">
          <mxGeometry x="190" y="270" width="120" height="60" as="geometry" />
        </mxCell>
        <mxCell id="POGAOx-3_6B34403kSa5-13" value="" style="endArrow=classic;html=1;rounded=0;entryX=0.5;entryY=0;entryDx=0;entryDy=0;" edge="1" parent="1" target="POGAOx-3_6B34403kSa5-8">
          <mxGeometry width="50" height="50" relative="1" as="geometry">
            <mxPoint x="420" y="230" as="sourcePoint" />
            <mxPoint x="470" y="180" as="targetPoint" />
          </mxGeometry>
        </mxCell>
        <mxCell id="POGAOx-3_6B34403kSa5-14" value="" style="endArrow=classic;html=1;rounded=0;entryX=0.5;entryY=0;entryDx=0;entryDy=0;" edge="1" parent="1" target="POGAOx-3_6B34403kSa5-11">
          <mxGeometry width="50" height="50" relative="1" as="geometry">
            <mxPoint x="250" y="230" as="sourcePoint" />
            <mxPoint x="300" y="180" as="targetPoint" />
          </mxGeometry>
        </mxCell>
        <mxCell id="POGAOx-3_6B34403kSa5-17" value="&lt;font style=&quot;font-size: 18px;&quot;&gt;질문&lt;/font&gt;" style="rounded=1;whiteSpace=wrap;html=1;" vertex="1" parent="1">
          <mxGeometry x="400" y="270" width="120" height="60" as="geometry" />
        </mxCell>
        <mxCell id="POGAOx-3_6B34403kSa5-18" value="&lt;font size=&quot;3&quot;&gt;메모지, 펜&lt;br&gt;태블릿 pc&lt;br&gt;(항상 메모할 &lt;br&gt;것이 생긴다)&lt;br&gt;&lt;/font&gt;" style="rounded=1;whiteSpace=wrap;html=1;" vertex="1" parent="1">
          <mxGeometry x="10" y="360" width="180" height="100" as="geometry" />
        </mxCell>
        <mxCell id="POGAOx-3_6B34403kSa5-19" value="&lt;font size=&quot;3&quot;&gt;노트북&lt;br&gt;(작업환경 일치&lt;br&gt;시키기에 좋음)&lt;br&gt;&lt;/font&gt;" style="rounded=1;whiteSpace=wrap;html=1;" vertex="1" parent="1">
          <mxGeometry x="220" y="360" width="180" height="100" as="geometry" />
        </mxCell>
        <mxCell id="POGAOx-3_6B34403kSa5-20" value="&lt;font size=&quot;3&quot;&gt;개인용 저장&lt;br&gt;드라이브&lt;br&gt;(코드 관리 유용)&lt;br&gt;&lt;/font&gt;" style="rounded=1;whiteSpace=wrap;html=1;" vertex="1" parent="1">
          <mxGeometry x="430" y="360" width="180" height="100" as="geometry" />
        </mxCell>
        <mxCell id="POGAOx-3_6B34403kSa5-22" value="&lt;font style=&quot;font-size: 18px;&quot;&gt;Git&lt;/font&gt;" style="rounded=1;whiteSpace=wrap;html=1;" vertex="1" parent="1">
          <mxGeometry x="760" y="350" width="120" height="60" as="geometry" />
        </mxCell>
        <mxCell id="POGAOx-3_6B34403kSa5-23" value="&lt;font style=&quot;font-size: 18px;&quot;&gt;Serve Version&lt;/font&gt;" style="rounded=1;whiteSpace=wrap;html=1;" vertex="1" parent="1">
          <mxGeometry x="830" y="220" width="150" height="80" as="geometry" />
        </mxCell>
        <mxCell id="POGAOx-3_6B34403kSa5-24" value="&lt;font style=&quot;font-size: 18px;&quot;&gt;SVN&lt;/font&gt;" style="rounded=1;whiteSpace=wrap;html=1;" vertex="1" parent="1">
          <mxGeometry x="944" y="350" width="120" height="60" as="geometry" />
        </mxCell>
        <mxCell id="POGAOx-3_6B34403kSa5-25" value="" style="endArrow=classic;html=1;rounded=0;entryX=0.75;entryY=0;entryDx=0;entryDy=0;exitX=0.5;exitY=1;exitDx=0;exitDy=0;" edge="1" parent="1" source="POGAOx-3_6B34403kSa5-23" target="POGAOx-3_6B34403kSa5-22">
          <mxGeometry width="50" height="50" relative="1" as="geometry">
            <mxPoint x="930" y="300" as="sourcePoint" />
            <mxPoint x="980" y="250" as="targetPoint" />
          </mxGeometry>
        </mxCell>
        <mxCell id="POGAOx-3_6B34403kSa5-26" value="" style="endArrow=classic;html=1;rounded=0;entryX=0.433;entryY=0;entryDx=0;entryDy=0;entryPerimeter=0;exitX=0.5;exitY=1;exitDx=0;exitDy=0;" edge="1" parent="1" source="POGAOx-3_6B34403kSa5-23" target="POGAOx-3_6B34403kSa5-24">
          <mxGeometry width="50" height="50" relative="1" as="geometry">
            <mxPoint x="930" y="300" as="sourcePoint" />
            <mxPoint x="980" y="250" as="targetPoint" />
          </mxGeometry>
        </mxCell>
        <mxCell id="POGAOx-3_6B34403kSa5-27" value="&lt;font size=&quot;3&quot;&gt;과제 제출 가이드&lt;/font&gt;" style="rounded=1;whiteSpace=wrap;html=1;" vertex="1" parent="1">
          <mxGeometry x="60" y="520" width="240" height="60" as="geometry" />
        </mxCell>
        <mxCell id="POGAOx-3_6B34403kSa5-28" value="&lt;font size=&quot;3&quot;&gt;1.기간 엄수&lt;br&gt;&lt;/font&gt;" style="rounded=1;whiteSpace=wrap;html=1;" vertex="1" parent="1">
          <mxGeometry x="60" y="680" width="210" height="70" as="geometry" />
        </mxCell>
        <mxCell id="POGAOx-3_6B34403kSa5-29" value="&lt;font size=&quot;3&quot;&gt;1-1. 기한 내에 미완성한 경우라도&lt;br&gt;그냥 제출할 것, 미완성 제출&lt;br&gt;&lt;/font&gt;" style="rounded=1;whiteSpace=wrap;html=1;" vertex="1" parent="1">
          <mxGeometry x="60" y="770" width="320" height="80" as="geometry" />
        </mxCell>
        <mxCell id="POGAOx-3_6B34403kSa5-31" value="" style="endArrow=classic;html=1;rounded=0;entryX=0.394;entryY=0;entryDx=0;entryDy=0;entryPerimeter=0;exitX=0.5;exitY=1;exitDx=0;exitDy=0;" edge="1" parent="1" source="POGAOx-3_6B34403kSa5-28" target="POGAOx-3_6B34403kSa5-29">
          <mxGeometry width="50" height="50" relative="1" as="geometry">
            <mxPoint x="179.5" y="730" as="sourcePoint" />
            <mxPoint x="179.5" y="780" as="targetPoint" />
          </mxGeometry>
        </mxCell>
        <mxCell id="POGAOx-3_6B34403kSa5-35" value="&lt;font size=&quot;3&quot;&gt;소스 원본&lt;br&gt;(cpp,vcxproj,sln)&lt;br&gt;&lt;/font&gt;" style="rounded=1;whiteSpace=wrap;html=1;" vertex="1" parent="1">
          <mxGeometry x="60" y="600" width="210" height="60" as="geometry" />
        </mxCell>
        <mxCell id="POGAOx-3_6B34403kSa5-38" value="&lt;font style=&quot;font-size: 18px;&quot;&gt;Gitlab&lt;/font&gt;" style="rounded=1;whiteSpace=wrap;html=1;" vertex="1" parent="1">
          <mxGeometry x="810" y="450" width="120" height="60" as="geometry" />
        </mxCell>
        <mxCell id="POGAOx-3_6B34403kSa5-39" value="&lt;font style=&quot;font-size: 18px;&quot;&gt;Github&lt;/font&gt;" style="rounded=1;whiteSpace=wrap;html=1;" vertex="1" parent="1">
          <mxGeometry x="660" y="450" width="120" height="60" as="geometry" />
        </mxCell>
        <mxCell id="POGAOx-3_6B34403kSa5-41" value="" style="endArrow=classic;html=1;rounded=0;entryX=0.75;entryY=0;entryDx=0;entryDy=0;exitX=0.5;exitY=1;exitDx=0;exitDy=0;" edge="1" parent="1" source="POGAOx-3_6B34403kSa5-22">
          <mxGeometry width="50" height="50" relative="1" as="geometry">
            <mxPoint x="915" y="400" as="sourcePoint" />
            <mxPoint x="860" y="450" as="targetPoint" />
          </mxGeometry>
        </mxCell>
        <mxCell id="POGAOx-3_6B34403kSa5-42" value="" style="endArrow=classic;html=1;rounded=0;entryX=0.75;entryY=0;entryDx=0;entryDy=0;exitX=0.5;exitY=1;exitDx=0;exitDy=0;" edge="1" parent="1" source="POGAOx-3_6B34403kSa5-22">
          <mxGeometry width="50" height="50" relative="1" as="geometry">
            <mxPoint x="795" y="400" as="sourcePoint" />
            <mxPoint x="740" y="450" as="targetPoint" />
          </mxGeometry>
        </mxCell>
        <mxCell id="POGAOx-3_6B34403kSa5-43" value="&lt;font size=&quot;3&quot;&gt;저장소&lt;/font&gt;" style="rounded=1;whiteSpace=wrap;html=1;" vertex="1" parent="1">
          <mxGeometry x="991" y="140" width="120" height="60" as="geometry" />
        </mxCell>
        <mxCell id="POGAOx-3_6B34403kSa5-48" value="&lt;font size=&quot;3&quot;&gt;스토리지&lt;/font&gt;" style="rounded=1;whiteSpace=wrap;html=1;" vertex="1" parent="1">
          <mxGeometry x="851" y="140" width="120" height="60" as="geometry" />
        </mxCell>
        <mxCell id="POGAOx-3_6B34403kSa5-49" value="&lt;font size=&quot;3&quot;&gt;리포지토리(Git)&lt;br&gt;&lt;/font&gt;" style="rounded=1;whiteSpace=wrap;html=1;" vertex="1" parent="1">
          <mxGeometry x="660" y="140" width="165" height="60" as="geometry" />
        </mxCell>
        <mxCell id="POGAOx-3_6B34403kSa5-52" style="edgeStyle=orthogonalEdgeStyle;rounded=0;orthogonalLoop=1;jettySize=auto;html=1;exitX=0.75;exitY=1;exitDx=0;exitDy=0;" edge="1" parent="1" source="POGAOx-3_6B34403kSa5-50" target="POGAOx-3_6B34403kSa5-43">
          <mxGeometry relative="1" as="geometry" />
        </mxCell>
        <mxCell id="POGAOx-3_6B34403kSa5-53" style="edgeStyle=orthogonalEdgeStyle;rounded=0;orthogonalLoop=1;jettySize=auto;html=1;exitX=0.5;exitY=1;exitDx=0;exitDy=0;" edge="1" parent="1" source="POGAOx-3_6B34403kSa5-50" target="POGAOx-3_6B34403kSa5-48">
          <mxGeometry relative="1" as="geometry" />
        </mxCell>
        <mxCell id="POGAOx-3_6B34403kSa5-54" style="edgeStyle=orthogonalEdgeStyle;rounded=0;orthogonalLoop=1;jettySize=auto;html=1;exitX=0.25;exitY=1;exitDx=0;exitDy=0;entryX=0.63;entryY=-0.017;entryDx=0;entryDy=0;entryPerimeter=0;" edge="1" parent="1" source="POGAOx-3_6B34403kSa5-50" target="POGAOx-3_6B34403kSa5-49">
          <mxGeometry relative="1" as="geometry" />
        </mxCell>
        <mxCell id="POGAOx-3_6B34403kSa5-50" value="&lt;font size=&quot;3&quot;&gt;&amp;nbsp;저장소를 부르는 여러 용어&lt;/font&gt;" style="rounded=1;whiteSpace=wrap;html=1;" vertex="1" parent="1">
          <mxGeometry x="711" y="20" width="280" height="60" as="geometry" />
        </mxCell>
        <mxCell id="POGAOx-3_6B34403kSa5-60" style="edgeStyle=orthogonalEdgeStyle;rounded=0;orthogonalLoop=1;jettySize=auto;html=1;exitX=1;exitY=0.5;exitDx=0;exitDy=0;entryX=0;entryY=0.5;entryDx=0;entryDy=0;" edge="1" parent="1" source="POGAOx-3_6B34403kSa5-55" target="POGAOx-3_6B34403kSa5-57">
          <mxGeometry relative="1" as="geometry" />
        </mxCell>
        <mxCell id="POGAOx-3_6B34403kSa5-55" value="&lt;font style=&quot;font-size: 18px;&quot;&gt;\n&lt;/font&gt;" style="rounded=1;whiteSpace=wrap;html=1;" vertex="1" parent="1">
          <mxGeometry x="555" y="760" width="120" height="60" as="geometry" />
        </mxCell>
        <mxCell id="POGAOx-3_6B34403kSa5-58" style="edgeStyle=orthogonalEdgeStyle;rounded=0;orthogonalLoop=1;jettySize=auto;html=1;exitX=0.5;exitY=1;exitDx=0;exitDy=0;entryX=0.5;entryY=0;entryDx=0;entryDy=0;" edge="1" parent="1" source="POGAOx-3_6B34403kSa5-56" target="POGAOx-3_6B34403kSa5-55">
          <mxGeometry relative="1" as="geometry" />
        </mxCell>
        <mxCell id="POGAOx-3_6B34403kSa5-59" style="edgeStyle=orthogonalEdgeStyle;rounded=0;orthogonalLoop=1;jettySize=auto;html=1;exitX=0.5;exitY=1;exitDx=0;exitDy=0;entryX=0.5;entryY=0;entryDx=0;entryDy=0;" edge="1" parent="1" source="POGAOx-3_6B34403kSa5-56" target="POGAOx-3_6B34403kSa5-55">
          <mxGeometry relative="1" as="geometry" />
        </mxCell>
        <mxCell id="POGAOx-3_6B34403kSa5-56" value="&lt;span style=&quot;font-size: 18px;&quot;&gt;특수문자 중에서 &lt;br&gt;(\)와 조합해서 쓰는 &lt;br&gt;특수문자를 &lt;br&gt;이스케이프 시퀸스라고 한다.&lt;/span&gt;" style="rounded=1;whiteSpace=wrap;html=1;" vertex="1" parent="1">
          <mxGeometry x="490" y="533.5" width="250" height="180" as="geometry" />
        </mxCell>
        <mxCell id="POGAOx-3_6B34403kSa5-57" value="&lt;span style=&quot;font-size: 18px;&quot;&gt;개행 문자&lt;br&gt;줄바꿈 문자&lt;br&gt;&lt;/span&gt;" style="rounded=1;whiteSpace=wrap;html=1;" vertex="1" parent="1">
          <mxGeometry x="785" y="730" width="175" height="120" as="geometry" />
        </mxCell>
        <mxCell id="POGAOx-3_6B34403kSa5-65" style="edgeStyle=orthogonalEdgeStyle;rounded=0;orthogonalLoop=1;jettySize=auto;html=1;exitX=0.5;exitY=1;exitDx=0;exitDy=0;entryX=0.5;entryY=0;entryDx=0;entryDy=0;" edge="1" parent="1" source="POGAOx-3_6B34403kSa5-62" target="POGAOx-3_6B34403kSa5-63">
          <mxGeometry relative="1" as="geometry" />
        </mxCell>
        <mxCell id="POGAOx-3_6B34403kSa5-62" value="&lt;font size=&quot;3&quot;&gt;변수&lt;/font&gt;" style="rounded=1;whiteSpace=wrap;html=1;" vertex="1" parent="1">
          <mxGeometry x="147" y="860" width="120" height="60" as="geometry" />
        </mxCell>
        <mxCell id="POGAOx-3_6B34403kSa5-74" style="edgeStyle=orthogonalEdgeStyle;rounded=0;orthogonalLoop=1;jettySize=auto;html=1;exitX=0.5;exitY=1;exitDx=0;exitDy=0;entryX=0.5;entryY=0;entryDx=0;entryDy=0;" edge="1" parent="1" source="POGAOx-3_6B34403kSa5-63" target="POGAOx-3_6B34403kSa5-71">
          <mxGeometry relative="1" as="geometry" />
        </mxCell>
        <mxCell id="POGAOx-3_6B34403kSa5-75" style="edgeStyle=orthogonalEdgeStyle;rounded=0;orthogonalLoop=1;jettySize=auto;html=1;exitX=0.5;exitY=1;exitDx=0;exitDy=0;entryX=0.5;entryY=0;entryDx=0;entryDy=0;" edge="1" parent="1" source="POGAOx-3_6B34403kSa5-63" target="POGAOx-3_6B34403kSa5-70">
          <mxGeometry relative="1" as="geometry" />
        </mxCell>
        <mxCell id="POGAOx-3_6B34403kSa5-76" style="edgeStyle=orthogonalEdgeStyle;rounded=0;orthogonalLoop=1;jettySize=auto;html=1;exitX=0.5;exitY=1;exitDx=0;exitDy=0;" edge="1" parent="1" source="POGAOx-3_6B34403kSa5-63" target="POGAOx-3_6B34403kSa5-72">
          <mxGeometry relative="1" as="geometry" />
        </mxCell>
        <mxCell id="POGAOx-3_6B34403kSa5-63" value="&lt;font size=&quot;3&quot;&gt;컴퓨터 메모리에&lt;br&gt;값을 저장하기 위한 공간&lt;br&gt;&lt;/font&gt;" style="rounded=1;whiteSpace=wrap;html=1;" vertex="1" parent="1">
          <mxGeometry x="134" y="970" width="146" height="80" as="geometry" />
        </mxCell>
        <mxCell id="POGAOx-3_6B34403kSa5-69" style="edgeStyle=orthogonalEdgeStyle;rounded=0;orthogonalLoop=1;jettySize=auto;html=1;exitX=0.5;exitY=1;exitDx=0;exitDy=0;entryX=0.5;entryY=0;entryDx=0;entryDy=0;" edge="1" parent="1" source="POGAOx-3_6B34403kSa5-64" target="POGAOx-3_6B34403kSa5-68">
          <mxGeometry relative="1" as="geometry" />
        </mxCell>
        <mxCell id="POGAOx-3_6B34403kSa5-64" value="&lt;font size=&quot;3&quot;&gt;함수&lt;/font&gt;" style="rounded=1;whiteSpace=wrap;html=1;" vertex="1" parent="1">
          <mxGeometry x="501.5" y="860" width="120" height="60" as="geometry" />
        </mxCell>
        <mxCell id="POGAOx-3_6B34403kSa5-79" style="edgeStyle=orthogonalEdgeStyle;rounded=0;orthogonalLoop=1;jettySize=auto;html=1;exitX=0.5;exitY=1;exitDx=0;exitDy=0;entryX=0.5;entryY=0;entryDx=0;entryDy=0;" edge="1" parent="1" source="POGAOx-3_6B34403kSa5-68" target="POGAOx-3_6B34403kSa5-77">
          <mxGeometry relative="1" as="geometry" />
        </mxCell>
        <mxCell id="POGAOx-3_6B34403kSa5-80" style="edgeStyle=orthogonalEdgeStyle;rounded=0;orthogonalLoop=1;jettySize=auto;html=1;exitX=0.5;exitY=1;exitDx=0;exitDy=0;entryX=0.5;entryY=0;entryDx=0;entryDy=0;" edge="1" parent="1" source="POGAOx-3_6B34403kSa5-68" target="POGAOx-3_6B34403kSa5-78">
          <mxGeometry relative="1" as="geometry" />
        </mxCell>
        <mxCell id="POGAOx-3_6B34403kSa5-82" style="edgeStyle=orthogonalEdgeStyle;rounded=0;orthogonalLoop=1;jettySize=auto;html=1;exitX=0.5;exitY=1;exitDx=0;exitDy=0;entryX=0.5;entryY=0;entryDx=0;entryDy=0;" edge="1" parent="1" source="POGAOx-3_6B34403kSa5-68" target="POGAOx-3_6B34403kSa5-81">
          <mxGeometry relative="1" as="geometry" />
        </mxCell>
        <mxCell id="POGAOx-3_6B34403kSa5-68" value="&lt;font size=&quot;3&quot;&gt;컴퓨터가 작업을&lt;br&gt;수행하도록 하는 기능&lt;br&gt;&lt;/font&gt;" style="rounded=1;whiteSpace=wrap;html=1;" vertex="1" parent="1">
          <mxGeometry x="484" y="970" width="155" height="80" as="geometry" />
        </mxCell>
        <mxCell id="POGAOx-3_6B34403kSa5-70" value="&lt;font size=&quot;3&quot;&gt;클래스&lt;/font&gt;" style="rounded=1;whiteSpace=wrap;html=1;" vertex="1" parent="1">
          <mxGeometry x="147" y="1100" width="120" height="60" as="geometry" />
        </mxCell>
        <mxCell id="POGAOx-3_6B34403kSa5-71" value="&lt;font size=&quot;3&quot;&gt;구조체&lt;/font&gt;" style="rounded=1;whiteSpace=wrap;html=1;" vertex="1" parent="1">
          <mxGeometry x="14" y="1100" width="120" height="60" as="geometry" />
        </mxCell>
        <mxCell id="POGAOx-3_6B34403kSa5-72" value="&lt;font size=&quot;3&quot;&gt;대리자&lt;/font&gt;" style="rounded=1;whiteSpace=wrap;html=1;" vertex="1" parent="1">
          <mxGeometry x="280" y="1100" width="120" height="60" as="geometry" />
        </mxCell>
        <mxCell id="POGAOx-3_6B34403kSa5-77" value="&lt;font size=&quot;3&quot;&gt;메서드&lt;/font&gt;" style="rounded=1;whiteSpace=wrap;html=1;" vertex="1" parent="1">
          <mxGeometry x="434" y="1100" width="120" height="60" as="geometry" />
        </mxCell>
        <mxCell id="POGAOx-3_6B34403kSa5-78" value="&lt;font size=&quot;3&quot;&gt;프로시저&lt;br&gt;&lt;/font&gt;" style="rounded=1;whiteSpace=wrap;html=1;" vertex="1" parent="1">
          <mxGeometry x="564" y="1100" width="120" height="60" as="geometry" />
        </mxCell>
        <mxCell id="POGAOx-3_6B34403kSa5-81" value="&lt;font size=&quot;3&quot;&gt;이벤트&lt;br&gt;&lt;/font&gt;" style="rounded=1;whiteSpace=wrap;html=1;" vertex="1" parent="1">
          <mxGeometry x="694" y="1100" width="120" height="60" as="geometry" />
        </mxCell>
        <mxCell id="POGAOx-3_6B34403kSa5-87" style="edgeStyle=orthogonalEdgeStyle;rounded=0;orthogonalLoop=1;jettySize=auto;html=1;exitX=1;exitY=0.5;exitDx=0;exitDy=0;entryX=0;entryY=0.5;entryDx=0;entryDy=0;" edge="1" parent="1" source="POGAOx-3_6B34403kSa5-83" target="POGAOx-3_6B34403kSa5-84">
          <mxGeometry relative="1" as="geometry" />
        </mxCell>
        <mxCell id="POGAOx-3_6B34403kSa5-83" value="&lt;font style=&quot;font-size: 18px;&quot;&gt;함수&lt;br&gt;(Do something)&lt;/font&gt;" style="rounded=1;whiteSpace=wrap;html=1;" vertex="1" parent="1">
          <mxGeometry x="148" y="1180" width="130" height="60" as="geometry" />
        </mxCell>
        <mxCell id="POGAOx-3_6B34403kSa5-84" value="&lt;font style=&quot;font-size: 18px;&quot;&gt;출력(Output)&lt;/font&gt;" style="rounded=1;whiteSpace=wrap;html=1;" vertex="1" parent="1">
          <mxGeometry x="298" y="1180" width="120" height="60" as="geometry" />
        </mxCell>
        <mxCell id="POGAOx-3_6B34403kSa5-86" style="edgeStyle=orthogonalEdgeStyle;rounded=0;orthogonalLoop=1;jettySize=auto;html=1;exitX=1;exitY=0.5;exitDx=0;exitDy=0;entryX=0;entryY=0.5;entryDx=0;entryDy=0;" edge="1" parent="1" source="POGAOx-3_6B34403kSa5-85" target="POGAOx-3_6B34403kSa5-83">
          <mxGeometry relative="1" as="geometry" />
        </mxCell>
        <mxCell id="POGAOx-3_6B34403kSa5-85" value="&lt;font style=&quot;font-size: 18px;&quot;&gt;입력(Input)&lt;/font&gt;" style="rounded=1;whiteSpace=wrap;html=1;" vertex="1" parent="1">
          <mxGeometry x="8" y="1180" width="120" height="60" as="geometry" />
        </mxCell>
        <mxCell id="POGAOx-3_6B34403kSa5-94" style="edgeStyle=orthogonalEdgeStyle;rounded=0;orthogonalLoop=1;jettySize=auto;html=1;exitX=0.5;exitY=1;exitDx=0;exitDy=0;entryX=0.5;entryY=0;entryDx=0;entryDy=0;" edge="1" parent="1" source="POGAOx-3_6B34403kSa5-89" target="POGAOx-3_6B34403kSa5-91">
          <mxGeometry relative="1" as="geometry">
            <Array as="points">
              <mxPoint x="178" y="1350" />
              <mxPoint x="85" y="1350" />
            </Array>
          </mxGeometry>
        </mxCell>
        <mxCell id="POGAOx-3_6B34403kSa5-95" style="edgeStyle=orthogonalEdgeStyle;rounded=0;orthogonalLoop=1;jettySize=auto;html=1;exitX=0.5;exitY=1;exitDx=0;exitDy=0;entryX=0.5;entryY=0;entryDx=0;entryDy=0;" edge="1" parent="1" source="POGAOx-3_6B34403kSa5-89" target="POGAOx-3_6B34403kSa5-92">
          <mxGeometry relative="1" as="geometry">
            <Array as="points">
              <mxPoint x="178" y="1350" />
              <mxPoint x="218" y="1350" />
            </Array>
          </mxGeometry>
        </mxCell>
        <mxCell id="POGAOx-3_6B34403kSa5-96" style="edgeStyle=orthogonalEdgeStyle;rounded=0;orthogonalLoop=1;jettySize=auto;html=1;exitX=0.5;exitY=1;exitDx=0;exitDy=0;entryX=0.5;entryY=0;entryDx=0;entryDy=0;" edge="1" parent="1" source="POGAOx-3_6B34403kSa5-89" target="POGAOx-3_6B34403kSa5-93">
          <mxGeometry relative="1" as="geometry">
            <Array as="points">
              <mxPoint x="178" y="1350" />
              <mxPoint x="352" y="1350" />
            </Array>
          </mxGeometry>
        </mxCell>
        <mxCell id="POGAOx-3_6B34403kSa5-89" value="&lt;font style=&quot;font-size: 18px;&quot;&gt;함수는 이렇게 생겼다&lt;br&gt;int main(void)&lt;/font&gt;" style="rounded=1;whiteSpace=wrap;html=1;" vertex="1" parent="1">
          <mxGeometry x="68" y="1280" width="220" height="60" as="geometry" />
        </mxCell>
        <mxCell id="POGAOx-3_6B34403kSa5-100" style="edgeStyle=orthogonalEdgeStyle;rounded=0;orthogonalLoop=1;jettySize=auto;html=1;exitX=0.5;exitY=1;exitDx=0;exitDy=0;entryX=0.5;entryY=0;entryDx=0;entryDy=0;" edge="1" parent="1" source="POGAOx-3_6B34403kSa5-91" target="POGAOx-3_6B34403kSa5-99">
          <mxGeometry relative="1" as="geometry" />
        </mxCell>
        <mxCell id="POGAOx-3_6B34403kSa5-91" value="&lt;span style=&quot;font-size: 18px;&quot;&gt;int&lt;/span&gt;" style="rounded=1;whiteSpace=wrap;html=1;" vertex="1" parent="1">
          <mxGeometry x="25" y="1370" width="120" height="60" as="geometry" />
        </mxCell>
        <mxCell id="POGAOx-3_6B34403kSa5-101" style="edgeStyle=orthogonalEdgeStyle;rounded=0;orthogonalLoop=1;jettySize=auto;html=1;exitX=0.5;exitY=1;exitDx=0;exitDy=0;entryX=0.5;entryY=0;entryDx=0;entryDy=0;" edge="1" parent="1" source="POGAOx-3_6B34403kSa5-92" target="POGAOx-3_6B34403kSa5-98">
          <mxGeometry relative="1" as="geometry" />
        </mxCell>
        <mxCell id="POGAOx-3_6B34403kSa5-92" value="&lt;span style=&quot;font-size: 18px;&quot;&gt;main&lt;/span&gt;" style="rounded=1;whiteSpace=wrap;html=1;" vertex="1" parent="1">
          <mxGeometry x="158" y="1370" width="120" height="60" as="geometry" />
        </mxCell>
        <mxCell id="POGAOx-3_6B34403kSa5-102" style="edgeStyle=orthogonalEdgeStyle;rounded=0;orthogonalLoop=1;jettySize=auto;html=1;exitX=0.5;exitY=1;exitDx=0;exitDy=0;entryX=0.5;entryY=0;entryDx=0;entryDy=0;" edge="1" parent="1" source="POGAOx-3_6B34403kSa5-93" target="POGAOx-3_6B34403kSa5-97">
          <mxGeometry relative="1" as="geometry" />
        </mxCell>
        <mxCell id="POGAOx-3_6B34403kSa5-93" value="&lt;span style=&quot;font-size: 18px;&quot;&gt;(void)&lt;/span&gt;" style="rounded=1;whiteSpace=wrap;html=1;" vertex="1" parent="1">
          <mxGeometry x="291.5" y="1370" width="120" height="60" as="geometry" />
        </mxCell>
        <mxCell id="POGAOx-3_6B34403kSa5-116" style="edgeStyle=orthogonalEdgeStyle;rounded=0;orthogonalLoop=1;jettySize=auto;html=1;exitX=0.5;exitY=1;exitDx=0;exitDy=0;" edge="1" parent="1" source="POGAOx-3_6B34403kSa5-97" target="POGAOx-3_6B34403kSa5-105">
          <mxGeometry relative="1" as="geometry" />
        </mxCell>
        <mxCell id="POGAOx-3_6B34403kSa5-97" value="&lt;span style=&quot;font-size: 18px;&quot;&gt;입력 형태를&lt;br&gt;결정한다&lt;br&gt;&lt;/span&gt;" style="rounded=1;whiteSpace=wrap;html=1;" vertex="1" parent="1">
          <mxGeometry x="291.5" y="1460" width="120" height="60" as="geometry" />
        </mxCell>
        <mxCell id="POGAOx-3_6B34403kSa5-98" value="&lt;span style=&quot;font-size: 18px;&quot;&gt;함수 이름&lt;/span&gt;" style="rounded=1;whiteSpace=wrap;html=1;" vertex="1" parent="1">
          <mxGeometry x="158" y="1460" width="120" height="60" as="geometry" />
        </mxCell>
        <mxCell id="POGAOx-3_6B34403kSa5-99" value="&lt;span style=&quot;font-size: 18px;&quot;&gt;출력 형태를&lt;br&gt;결정한다&lt;br&gt;&lt;/span&gt;" style="rounded=1;whiteSpace=wrap;html=1;" vertex="1" parent="1">
          <mxGeometry x="25" y="1460" width="120" height="60" as="geometry" />
        </mxCell>
        <mxCell id="POGAOx-3_6B34403kSa5-103" value="&lt;span style=&quot;font-size: 18px;&quot;&gt;프로그램이란? &lt;br&gt;&lt;br&gt;정해진 순서에 의해서 진행되는 함수의 호출을 말하는 것&lt;/span&gt;" style="rounded=1;whiteSpace=wrap;html=1;" vertex="1" parent="1">
          <mxGeometry x="484" y="1180" width="280" height="150" as="geometry" />
        </mxCell>
        <mxCell id="POGAOx-3_6B34403kSa5-104" value="&lt;span style=&quot;font-size: 18px;&quot;&gt;1.함수의 정의: 함수를 코드로 적는다.&lt;br&gt;2.함수의 호출: 함수의 실행을 명령한다.&lt;br&gt;3.인자의 전달: 함수의 실행을 명령할 때, &lt;br&gt;입력 값을 전달한다.&lt;br&gt;&lt;/span&gt;" style="rounded=1;whiteSpace=wrap;html=1;" vertex="1" parent="1">
          <mxGeometry x="434" y="1350" width="380" height="150" as="geometry" />
        </mxCell>
        <mxCell id="POGAOx-3_6B34403kSa5-112" style="edgeStyle=orthogonalEdgeStyle;rounded=0;orthogonalLoop=1;jettySize=auto;html=1;exitX=0.5;exitY=1;exitDx=0;exitDy=0;entryX=0.5;entryY=0;entryDx=0;entryDy=0;" edge="1" parent="1" source="POGAOx-3_6B34403kSa5-105" target="POGAOx-3_6B34403kSa5-110">
          <mxGeometry relative="1" as="geometry" />
        </mxCell>
        <mxCell id="POGAOx-3_6B34403kSa5-114" style="edgeStyle=orthogonalEdgeStyle;rounded=0;orthogonalLoop=1;jettySize=auto;html=1;exitX=0.5;exitY=1;exitDx=0;exitDy=0;" edge="1" parent="1" source="POGAOx-3_6B34403kSa5-105" target="POGAOx-3_6B34403kSa5-109">
          <mxGeometry relative="1" as="geometry" />
        </mxCell>
        <mxCell id="POGAOx-3_6B34403kSa5-115" style="edgeStyle=orthogonalEdgeStyle;rounded=0;orthogonalLoop=1;jettySize=auto;html=1;exitX=0.5;exitY=1;exitDx=0;exitDy=0;" edge="1" parent="1" source="POGAOx-3_6B34403kSa5-105" target="POGAOx-3_6B34403kSa5-111">
          <mxGeometry relative="1" as="geometry" />
        </mxCell>
        <mxCell id="POGAOx-3_6B34403kSa5-105" value="&lt;span style=&quot;font-size: 18px;&quot;&gt;입력 값을 부르는 &lt;br&gt;여러가지 용어&lt;/span&gt;" style="rounded=1;whiteSpace=wrap;html=1;" vertex="1" parent="1">
          <mxGeometry x="241.5" y="1560" width="220" height="60" as="geometry" />
        </mxCell>
        <mxCell id="POGAOx-3_6B34403kSa5-109" value="&lt;span style=&quot;font-size: 18px;&quot;&gt;인자&lt;/span&gt;" style="rounded=1;whiteSpace=wrap;html=1;" vertex="1" parent="1">
          <mxGeometry x="291.5" y="1660" width="120" height="60" as="geometry" />
        </mxCell>
        <mxCell id="POGAOx-3_6B34403kSa5-110" value="&lt;span style=&quot;font-size: 18px;&quot;&gt;매개변수&lt;/span&gt;" style="rounded=1;whiteSpace=wrap;html=1;" vertex="1" parent="1">
          <mxGeometry x="158" y="1660" width="120" height="60" as="geometry" />
        </mxCell>
        <mxCell id="POGAOx-3_6B34403kSa5-111" value="&lt;span style=&quot;font-size: 18px;&quot;&gt;인수&lt;/span&gt;" style="rounded=1;whiteSpace=wrap;html=1;" vertex="1" parent="1">
          <mxGeometry x="425" y="1660" width="120" height="60" as="geometry" />
        </mxCell>
        <mxCell id="POGAOx-3_6B34403kSa5-117" value="&lt;span style=&quot;font-size: 18px;&quot;&gt;함수는 몸통이 있다.&lt;br&gt;몸통 = 내용&lt;br&gt;&lt;br&gt;함수의 내용은 중괄호 안에 적어 준다.&lt;br&gt;&lt;/span&gt;" style="rounded=1;whiteSpace=wrap;html=1;" vertex="1" parent="1">
          <mxGeometry x="841" y="870" width="270" height="180" as="geometry" />
        </mxCell>
        <mxCell id="POGAOx-3_6B34403kSa5-118" value="&lt;span style=&quot;font-size: 18px;&quot;&gt;즉, 메인 함수는&lt;/span&gt;&lt;br&gt;&lt;br&gt;&lt;span style=&quot;font-size: 18px;&quot;&gt;int main(void){&lt;/span&gt;&lt;br&gt;&lt;div style=&quot;text-align: left;&quot;&gt;&lt;span style=&quot;font-size: 18px;&quot;&gt;&amp;nbsp;//여기에 내용이 들어감&lt;/span&gt;&lt;/div&gt;&lt;span style=&quot;font-size: 18px;&quot;&gt;&lt;div style=&quot;text-align: left;&quot;&gt;&lt;span style=&quot;background-color: initial;&quot;&gt;}&lt;/span&gt;&lt;/div&gt;&lt;/span&gt;" style="rounded=1;whiteSpace=wrap;html=1;" vertex="1" parent="1">
          <mxGeometry x="841" y="1070" width="270" height="180" as="geometry" />
        </mxCell>
        <mxCell id="POGAOx-3_6B34403kSa5-122" style="edgeStyle=orthogonalEdgeStyle;rounded=0;orthogonalLoop=1;jettySize=auto;html=1;exitX=0.5;exitY=1;exitDx=0;exitDy=0;entryX=0.5;entryY=0;entryDx=0;entryDy=0;" edge="1" parent="1" source="POGAOx-3_6B34403kSa5-120" target="POGAOx-3_6B34403kSa5-121">
          <mxGeometry relative="1" as="geometry" />
        </mxCell>
        <mxCell id="POGAOx-3_6B34403kSa5-120" value="&lt;span style=&quot;font-size: 18px;&quot;&gt;return은 &lt;br&gt;1.함수의 종료와 &lt;br&gt;2.값의 전달(반환)이라는&lt;br&gt;두 가지 의미를 지닌다.&lt;br&gt;&lt;/span&gt;" style="rounded=1;whiteSpace=wrap;html=1;" vertex="1" parent="1">
          <mxGeometry x="980" y="530" width="405.5" height="180" as="geometry" />
        </mxCell>
        <mxCell id="POGAOx-3_6B34403kSa5-121" value="&lt;span style=&quot;font-size: 18px;&quot;&gt;return 0;&lt;br&gt;&lt;br&gt;이런 것을 return문이라고 한다.&lt;br&gt;&lt;/span&gt;" style="rounded=1;whiteSpace=wrap;html=1;" vertex="1" parent="1">
          <mxGeometry x="985.5" y="730" width="400" height="120" as="geometry" />
        </mxCell>
      </root>
    </mxGraphModel>
  </diagram>
</mxfile>
